<?xml version="1.0" encoding="UTF-8" standalone="no"?>
<!-- Created with Inkscape (http://www.inkscape.org/) -->

<svg
   xmlns:dc="http://purl.org/dc/elements/1.1/"
   xmlns:cc="http://creativecommons.org/ns#"
   xmlns:rdf="http://www.w3.org/1999/02/22-rdf-syntax-ns#"
   xmlns:svg="http://www.w3.org/2000/svg"
   xmlns="http://www.w3.org/2000/svg"
   xmlns:sodipodi="http://sodipodi.sourceforge.net/DTD/sodipodi-0.dtd"
   xmlns:inkscape="http://www.inkscape.org/namespaces/inkscape"
   width="744.09448819"
   height="1052.3622047"
   id="svg2"
   version="1.1"
   inkscape:version="0.48.1 "
   sodipodi:docname="Palm.svg"
   inkscape:export-filename="C:\Users\akur\Documents\Visual Studio 2010\Projects\TimeMerge\TimeMerge\Palm.png"
   inkscape:export-xdpi="90"
   inkscape:export-ydpi="90">
  <defs
     id="defs4">
    <inkscape:path-effect
       effect="bend_path"
       id="path-effect3773"
       is_visible="true"
       bendpath="m 221.52271,451.73051 151.65317,0"
       prop_scale="1"
       scale_y_rel="false"
       vertical="false" />
    <filter
       inkscape:collect="always"
       id="filter3850"
       x="-0.1365583"
       width="1.2731166"
       y="-0.10702299"
       height="1.214046">
      <feGaussianBlur
         inkscape:collect="always"
         stdDeviation="16.163969"
         id="feGaussianBlur3852" />
    </filter>
  </defs>
  <sodipodi:namedview
     id="base"
     pagecolor="#ffffff"
     bordercolor="#666666"
     borderopacity="1.0"
     inkscape:pageopacity="0.0"
     inkscape:pageshadow="2"
     inkscape:zoom="1.4"
     inkscape:cx="411.97397"
     inkscape:cy="512.35499"
     inkscape:document-units="px"
     inkscape:current-layer="layer1"
     showgrid="false"
     inkscape:window-width="1920"
     inkscape:window-height="1138"
     inkscape:window-x="1272"
     inkscape:window-y="-8"
     inkscape:window-maximized="1" />
  <metadata
     id="metadata7">
    <rdf:RDF>
      <cc:Work
         rdf:about="">
        <dc:format>image/svg+xml</dc:format>
        <dc:type
           rdf:resource="http://purl.org/dc/dcmitype/StillImage" />
        <dc:title></dc:title>
      </cc:Work>
    </rdf:RDF>
  </metadata>
  <g
     inkscape:label="Layer 1"
     inkscape:groupmode="layer"
     id="layer1">
    <g
       id="g3810"
       style="filter:url(#filter3850)">
      <path
         sodipodi:nodetypes="sssssssssssssss"
         inkscape:connector-curvature="0"
         id="path3806"
         d="m 368.59438,403.68875 c 4.39759,-4.30896 10.99999,-6.06005 14.45879,-11.35326 4.98683,-8.36316 8.35653,-17.69282 14.61614,-25.29028 7.62437,-10.78428 17.55983,-19.98365 28.93826,-26.84073 0.60274,-0.67076 1.81947,-0.78962 2.1398,0.21924 0.6564,1.33629 -0.29086,2.77558 -1.41515,3.49399 -9.17171,10.46672 -18.27587,21.01413 -26.53095,32.2064 -0.53344,0.56338 -1.65337,1.73368 -0.55736,2.30569 1.45838,-0.0331 1.92567,-1.72179 3.06846,-2.34665 9.5825,-9.24782 20.04423,-17.61179 31.14828,-25.0237 9.34752,-6.11379 19.20502,-11.82334 30.09998,-14.77294 3.18608,-0.69934 6.56112,-1.40523 9.78955,-0.68314 1.58554,1.00979 1.11272,3.53313 -0.49921,4.27107 -3.49801,2.98009 -7.8891,4.60351 -11.81659,6.92848 -12.89311,6.57623 -26.27655,12.4718 -37.95031,21.09255 -2.79773,2.15296 -5.52649,4.40089 -8.06753,6.84535 1.15227,1.3261 2.81872,-0.0285 4.02583,-0.54764 12.06434,-6.12868 24.54768,-11.79401 37.85904,-14.71388 14.04712,-2.90639 28.33126,-4.92657 42.70346,-5.12993 3.03484,0.0455 6.18164,-0.34621 9.12768,0.49883 1.67478,0.64306 2.36115,2.71641 1.51859,4.24662 -0.7434,1.69542 -2.60357,2.42794 -4.34013,2.65064 -8.51789,2.39907 -17.46345,2.12784 -26.21304,2.89282 -11.7327,0.66165 -23.72947,1.19783 -34.84871,5.30668 -1.4856,0.55425 -2.92764,1.22837 -4.28423,2.04433 -0.59834,1.72966 1.73653,2.8993 3.16445,2.24775 9.97508,-0.57609 20.01844,-0.004 29.88216,1.54388 9.00873,1.52905 17.92617,3.99702 26.1225,8.03131 4.13089,2.12732 7.98938,4.95083 10.70914,8.72385 0.90099,2.93337 -2.62591,5.74957 -5.41357,4.65217 -6.62737,-0.63482 -12.70991,-3.49249 -18.98898,-5.45244 -11.69107,-4.24067 -23.31676,-9.16699 -35.77129,-10.75903 -6.50002,-0.7543 -13.26086,0.0343 -19.20781,2.80697 -0.71777,1.30479 1.17972,2.53306 2.346,1.97358 9.67921,0.4388 18.72238,4.86082 26.27038,10.62 5.70206,4.36742 10.83262,9.95982 13.00016,16.8679 0.6276,3.20122 -2.77021,6.19864 -5.94717,5.51144 -4.81285,-0.22639 -8.59869,-3.54755 -12.35068,-6.14675 -7.43464,-5.45536 -14.0506,-12.11264 -22.43775,-16.21206 -6.11363,-2.82907 -13.40327,-3.10642 -19.71622,-0.7368 -0.8717,0.51777 -2.51543,0.54771 -2.43547,1.85894 0.002,1.75872 1.81536,2.96733 3.44372,3.13086 8.99272,3.79422 15.53351,12.14431 17.89625,21.3903 0.64039,2.2118 1.03011,4.62463 0.31287,6.86356 -1.60806,1.80559 -4.61692,1.11366 -6.08014,-0.52941 -9.42301,-7.23542 -20.33173,-12.74264 -32.04762,-15.25749 -6.5594,-1.72439 -13.51585,-2.24228 -20.19466,-0.87229 -3.08454,0.34008 -6.8017,-1.81358 -6.69093,-5.15858 -0.0703,-1.21898 0.34022,-2.48023 1.16401,-3.3982 z"
         inkscape:transform-center-y="-4.9857561"
         inkscape:transform-center-x="9.0953252"
         style="fill:#3fad4b;fill-opacity:1;stroke:#25784e;stroke-width:3.32203007;stroke-miterlimit:4;stroke-opacity:1" />
      <path
         style="fill:#3fad4b;fill-opacity:1;stroke:#25784e;stroke-width:3.23709178;stroke-miterlimit:4;stroke-opacity:1"
         inkscape:transform-center-x="-7.8165689"
         inkscape:transform-center-y="-5.0675391"
         d="m 385.01224,407.21179 c -3.90313,-4.5593 -10.11576,-6.76883 -13.04335,-12.22563 -4.16625,-8.58623 -6.70653,-18.00227 -12.1529,-25.93047 -6.51942,-11.16036 -15.37777,-20.93473 -25.79758,-28.51467 -0.52897,-0.70367 -1.68911,-0.91058 -2.07227,0.0569 -0.73054,1.26428 0.072,2.74856 1.09852,3.53769 8.02982,10.96296 15.98872,22.00021 23.08364,33.60814 0.47041,0.59304 1.45896,1.82583 0.36318,2.30664 -1.39871,-0.14064 -1.72149,-1.83431 -2.77276,-2.53288 -8.51562,-9.79583 -17.94205,-18.78841 -28.05674,-26.89314 -8.5241,-6.69922 -17.56837,-13.03905 -27.8157,-16.74408 -3.00889,-0.92311 -6.19883,-1.86663 -9.35464,-1.39633 -1.59886,0.87468 -1.33316,3.38889 0.16041,4.23333 3.13812,3.18706 7.23572,5.10734 10.83545,7.68255 11.89608,7.41621 24.31414,14.19997 34.88589,23.53462 2.52712,2.32252 4.98088,4.73325 7.23959,7.32316 -1.20619,1.21755 -2.70608,-0.2367 -3.82706,-0.83626 -11.13325,-6.9151 -22.70372,-13.40598 -35.27491,-17.26079 -13.27914,-3.89604 -26.8522,-6.93897 -40.64571,-8.20333 -2.91924,-0.18008 -5.91338,-0.79806 -8.80707,-0.18602 -1.65718,0.50774 -2.47158,2.49398 -1.77644,4.05983 0.58754,1.72082 2.32002,2.57831 3.97186,2.92576 8.00461,2.98803 16.61969,3.38417 24.96905,4.78387 11.22321,1.51916 22.70953,2.93459 33.08571,7.79519 1.38593,0.65462 2.72104,1.42375 3.96345,2.3259 0.44562,1.74374 -1.88512,2.71996 -3.20837,1.97405 -9.5409,-1.30491 -19.23321,-1.48712 -28.82591,-0.6966 -8.76977,0.83499 -17.52201,2.59924 -25.69849,5.95582 -4.12792,1.7841 -8.04615,4.27241 -10.94126,7.77795 -1.08491,2.81534 2.09326,5.84348 4.85361,4.97179 6.41497,-0.13281 12.47259,-2.48991 18.65195,-3.95047 11.54962,-3.30049 23.08766,-7.27947 35.17285,-7.92111 6.30155,-0.25963 12.73835,1.01601 18.24491,4.18063 0.59211,1.33513 -1.32279,2.40137 -2.40152,1.76526 -9.33249,-0.28582 -18.3516,3.38898 -26.03407,8.48829 -5.80491,3.86865 -11.15228,8.98317 -13.75114,15.60982 -0.84227,3.09873 2.19832,6.29539 5.30208,5.85555 4.64106,0.13407 8.52669,-2.84857 12.32581,-5.12437 7.55089,-4.80921 14.40499,-10.85994 22.76967,-14.26638 6.08537,-2.32672 13.10991,-2.05926 18.99823,0.73652 0.79883,0.57329 2.37588,0.72445 2.20105,2.00682 -0.1336,1.7278 -1.96596,2.78096 -3.54269,2.82101 -8.92371,3.06172 -15.8321,10.78122 -18.79324,19.69044 -0.7806,2.12565 -1.33537,4.4674 -0.81358,6.72029 1.41005,1.89311 4.35266,1.43617 5.8813,-0.0697 9.59433,-6.41085 20.48692,-11.01367 31.9314,-12.61668 6.4311,-1.20836 13.1535,-1.2019 19.46806,0.63884 2.93818,0.56262 6.67054,-1.27802 6.81412,-4.5727 0.15866,-1.19245 -0.14151,-2.46204 -0.86439,-3.42498 z"
         id="path3808"
         inkscape:connector-curvature="0"
         sodipodi:nodetypes="sssssssssssssss" />
      <path
         sodipodi:nodetypes="sssssssss"
         inkscape:connector-curvature="0"
         id="rect2985"
         d="m 333.32644,653.51235 c 5.85578,0.68091 10.3947,0.62009 16.45748,-0.23346 4.38448,-0.61728 14.2037,-2.01961 14.06271,-0.62478 -1.86937,18.49306 -1.24952,26.75377 -4.19269,36.98813 -0.98345,3.41979 -4.13574,4.13469 -5.98562,4.27781 -9.5552,0.73928 -15.36556,1.808 -27.00084,-0.40855 -2.23707,-0.42616 -4.1183,-2.95186 -4.38254,-4.97818 -0.96596,-7.40733 -2.69332,-30.52887 -3.08285,-35.87921 -0.13706,-1.88231 11.86193,0.59516 14.12435,0.85824 z"
         style="fill:#ad793f;fill-opacity:1;stroke:#624c1e;stroke-width:0.83139235;stroke-miterlimit:4;stroke-opacity:1" />
      <path
         style="fill:#ad793f;fill-opacity:1;stroke:#624c1e;stroke-width:0.83139235;stroke-miterlimit:4;stroke-opacity:1"
         d="m 334.73517,618.81669 c 5.81594,0.9636 10.35251,1.12257 16.44946,0.56355 4.40924,-0.40427 14.28484,-1.32965 14.07652,0.0568 -2.76242,18.38091 -2.5432,26.66195 -5.97838,36.7418 -1.14784,3.3682 -4.33105,3.92964 -6.18566,3.98305 -9.57982,0.2758 -15.43507,1.06205 -26.94945,-1.71518 -2.21381,-0.53392 -3.97056,-3.14777 -4.1364,-5.18449 -0.60618,-7.44541 -1.21227,-30.62346 -1.34232,-35.98637 -0.0458,-1.88676 11.8192,1.16871 14.06623,1.54097 z"
         id="path3756"
         inkscape:connector-curvature="0"
         sodipodi:nodetypes="sssssssss" />
      <path
         sodipodi:nodetypes="sssssssss"
         inkscape:connector-curvature="0"
         id="path3758"
         d="m 337.36225,586.56088 c 5.78251,1.14726 10.31177,1.44979 16.42336,1.08408 4.41983,-0.26445 14.31978,-0.87669 14.06767,0.50247 -3.34301,18.28423 -3.3861,26.56806 -7.13871,36.53409 -1.2539,3.33017 -4.4533,3.79054 -6.30866,3.7852 -9.58375,-0.0276 -15.46096,0.57281 -26.88163,-2.56759 -2.1958,-0.60374 -3.86891,-3.27191 -3.97018,-5.31286 -0.37014,-7.46087 -0.24206,-30.64649 -0.20225,-36.01083 0.0139,-1.88726 11.77627,1.54234 14.01039,1.98557 z"
         style="fill:#ad793f;fill-opacity:1;stroke:#624c1e;stroke-width:0.83139235;stroke-miterlimit:4;stroke-opacity:1" />
      <path
         style="fill:#ad793f;fill-opacity:1;stroke:#624c1e;stroke-width:0.83139235;stroke-miterlimit:4;stroke-opacity:1"
         d="m 341.98222,552.31098 c 5.74369,1.32804 10.26123,1.77247 16.38128,1.59861 4.42595,-0.12572 14.34023,-0.42718 14.045,0.9434 -3.91478,18.1704 -4.21764,26.4488 -8.28095,36.29224 -1.35773,3.2892 -4.56999,3.64901 -6.42427,3.58548 -9.57816,-0.32813 -15.47132,0.0877 -26.78788,-3.40936 -2.17579,-0.6723 -3.76439,-3.39163 -3.80161,-5.43475 -0.13598,-7.46881 0.71917,-30.63901 0.92719,-35.99946 0.0731,-1.8859 11.72211,1.9109 13.94123,2.42397 z"
         id="path3760"
         inkscape:connector-curvature="0"
         sodipodi:nodetypes="sssssssss" />
      <path
         sodipodi:nodetypes="sssssssss"
         inkscape:connector-curvature="0"
         id="path3762"
         d="m 346.5921,518.08049 c 5.70009,1.50421 10.20181,2.08748 16.32431,2.10209 4.42773,0.0105 14.34659,0.0144 14.0093,1.37527 -4.47223,18.04129 -5.02975,26.30644 -9.39414,36.02015 -1.45832,3.24584 -4.68014,3.50661 -6.53159,3.38603 -9.56352,-0.62281 -15.46668,-0.38857 -26.67024,-4.2323 -2.15406,-0.73896 -3.65821,-3.5059 -3.63251,-5.54919 0.094,-7.46946 1.66192,-30.60237 2.03485,-35.95387 0.13111,-1.88275 11.65773,2.27081 13.86001,2.85195 z"
         style="fill:#ad793f;fill-opacity:1;stroke:#624c1e;stroke-width:0.83139235;stroke-miterlimit:4;stroke-opacity:1" />
      <path
         style="fill:#ad793f;fill-opacity:1;stroke:#624c1e;stroke-width:0.83139235;stroke-miterlimit:4;stroke-opacity:1"
         d="m 352.10734,484.08049 c 5.70009,1.50421 10.20181,2.08748 16.32431,2.10209 4.42773,0.0105 14.34659,0.0144 14.0093,1.37527 -4.47223,18.04129 -5.02975,26.30644 -9.39414,36.02015 -1.45832,3.24584 -4.68014,3.50661 -6.53159,3.38603 -9.56352,-0.62281 -15.46668,-0.38857 -26.67024,-4.2323 -2.15406,-0.73896 -3.65821,-3.5059 -3.63251,-5.54919 0.094,-7.46946 1.66192,-30.60237 2.03485,-35.95387 0.13111,-1.88275 11.65773,2.27081 13.86001,2.85195 z"
         id="path3764"
         inkscape:connector-curvature="0"
         sodipodi:nodetypes="sssssssss" />
      <path
         sodipodi:nodetypes="sssssssss"
         inkscape:connector-curvature="0"
         id="path3766"
         d="m 358.70681,449.87099 c 5.65206,1.67569 10.1341,2.39467 16.25337,2.59419 4.42539,0.14425 14.33961,0.44771 13.96137,1.79777 -5.0151,17.89799 -5.822,26.14253 -10.47779,35.71998 -1.55569,3.20031 -4.78392,3.36366 -6.63088,3.18721 -9.54035,-0.91138 -15.44789,-0.85555 -26.53024,-5.0359 -2.13076,-0.80369 -3.55066,-3.6148 -3.46325,-5.65638 0.31956,-7.46321 2.58546,-30.53821 3.11985,-35.876 0.18792,-1.87794 11.58384,2.62187 13.76756,3.26926 z"
         style="fill:#ad793f;fill-opacity:1;stroke:#624c1e;stroke-width:0.83139235;stroke-miterlimit:4;stroke-opacity:1" />
      <path
         style="fill:#ad793f;fill-opacity:1;stroke:#624c1e;stroke-width:0.83139235;stroke-miterlimit:4;stroke-opacity:1"
         d="m 365.99263,413.77383 c 5.62646,1.75974 10.09729,2.54543 16.2129,2.83612 4.42275,0.21019 14.33135,0.66136 13.93303,2.00563 -5.28127,17.82127 -6.21094,26.05287 -11.00894,35.55987 -1.60321,3.17677 -4.83352,3.29199 -6.67764,3.08804 -9.52571,-1.05345 -15.43343,-1.08567 -26.45225,-5.43071 -2.11855,-0.83535 -3.4964,-3.66731 -3.37857,-5.70736 0.43074,-7.45762 3.04027,-30.49629 3.65415,-35.82552 0.21588,-1.87494 11.54348,2.7942 13.71731,3.47406 z"
         id="path3768"
         inkscape:connector-curvature="0"
         sodipodi:nodetypes="sssssssss" />
      <path
         sodipodi:nodetypes="sssssssssssssss"
         inkscape:connector-curvature="0"
         id="path3770"
         d="m 370.95622,403.57805 c -7.09909,1.07805 -13.29887,5.99579 -20.68182,5.51225 -11.33583,-1.20868 -22.47177,-4.59761 -33.96022,-4.0868 -15.4394,-0.44795 -30.97203,2.36235 -45.28459,8.1529 -1.04877,0.0917 -1.99868,1.14051 -1.26584,2.14395 0.81089,1.54504 2.82306,1.67024 4.2759,1.12665 16.20447,-1.21359 32.43871,-2.30792 48.69782,-2.16145 0.89959,-0.1023 2.77644,-0.32584 2.5625,1.09375 -1.03531,1.33351 -2.95267,0.58749 -4.32982,1.21369 -15.33545,2.44808 -30.44095,6.33212 -45.08891,11.47943 -12.21212,4.42095 -24.39331,9.59897 -34.68061,17.67204 -2.85413,2.475 -5.84451,5.1212 -7.38459,8.62952 -0.13726,2.18113 2.57272,3.5057 4.37969,2.52214 5.22411,-1.17037 9.78098,-4.12023 14.68167,-6.14824 15.08986,-7.39603 29.87405,-15.72417 46.05655,-20.55621 3.96042,-1.09727 7.9631,-2.06397 12.02227,-2.71862 0.45992,1.99923 -1.96722,2.6024 -3.28886,3.3623 -14.09642,6.93797 -28.04342,14.58976 -39.96605,24.93157 -12.41638,11.03575 -24.15848,22.91163 -34.24435,36.13992 -2.04614,2.85513 -4.58255,5.50868 -5.81204,8.84028 -0.54525,2.0077 0.94153,4.09601 2.96755,4.38218 2.11386,0.49393 4.08659,-0.72436 5.49249,-2.18416 8.1307,-6.24665 14.03244,-14.75835 20.77847,-22.36318 8.70194,-10.45226 17.4671,-21.23793 29.00423,-28.70904 1.54645,-0.99449 3.17615,-1.86464 4.88106,-2.55612 2.04639,0.65283 1.54436,3.64282 -0.0543,4.51563 -7.41116,8.87697 -13.78466,18.62009 -19.11173,28.87892 -4.75663,9.44999 -8.56316,19.47159 -10.39316,29.9176 -0.83342,5.33049 -0.82144,10.89439 0.87169,16.06285 2.15174,2.88937 7.24085,1.57747 8.12284,-1.78321 3.96234,-6.60933 5.44911,-14.26613 7.91946,-21.47804 4.04073,-13.84149 7.38853,-28.10158 14.4577,-40.80125 3.76177,-6.57442 9.16112,-12.31256 15.875,-15.90625 1.72711,0.24463 1.58157,2.86874 0.25,3.5625 -6.24842,9.3114 -8.29499,20.81636 -8.04871,31.86535 0.20184,8.35854 1.95466,17.04198 6.99047,23.88891 2.59301,2.82232 7.76453,1.75726 9.30215,-1.67878 3.09919,-4.6357 2.56693,-10.48 2.69359,-15.78794 -0.0372,-10.73112 -1.77376,-21.54102 0.12604,-32.21009 1.53519,-7.66574 6.29123,-14.64122 12.87623,-18.8572 1.08936,-0.44889 2.24918,-1.95713 3.43321,-0.96586 1.66041,1.23187 1.55437,3.76374 0.58795,5.39294 -2.60509,11.01904 0.78288,22.94271 7.89359,31.60602 1.64924,2.14235 3.66101,4.19208 6.27048,5.0904 2.8132,-0.23342 4.23064,-3.5164 3.68524,-6.02654 -0.35053,-13.82559 1.95477,-27.82487 7.64344,-40.48266 2.88594,-7.308 7.18531,-14.14171 13.07757,-19.39705 2.44473,-2.63174 2.96844,-7.59574 -0.26874,-9.83169 -1.1035,-0.91778 -2.57795,-1.41779 -4.01251,-1.29331 z"
         inkscape:transform-center-y="0.12715551"
         inkscape:transform-center-x="-1.6929954"
         style="fill:#3fad4b;fill-opacity:1;stroke:#25784e;stroke-width:3.8747797;stroke-miterlimit:4;stroke-opacity:1" />
      <path
         style="fill:#3fad4b;fill-opacity:1;stroke:#25784e;stroke-width:3.8747797;stroke-miterlimit:4;stroke-opacity:1"
         inkscape:transform-center-x="-2.9354053"
         inkscape:transform-center-y="-3.8194399"
         d="m 373.85932,404.69759 c 6.6821,2.62848 11.6342,8.80085 18.94003,9.96985 11.32103,1.34029 22.93159,0.51043 34.01936,3.56114 15.15298,2.9938 29.6729,9.18512 42.34105,18.01109 1.00218,0.32244 1.6953,1.5561 0.75782,2.37162 -1.13392,1.32625 -3.12361,1.00122 -4.41935,0.14841 -15.52974,-4.7838 -31.11501,-9.45794 -47.00022,-12.92782 -0.85437,-0.29963 -2.63464,-0.93461 -2.74147,0.49703 0.71313,1.53022 2.74832,1.22888 3.95191,2.14542 14.40815,5.79434 28.27303,12.93765 41.41112,21.21099 10.92453,7.0239 21.65069,14.77908 29.88704,24.93613 2.23285,3.0473 4.56051,6.2918 5.28256,10.05462 -0.35081,2.1571 -3.28736,2.84642 -4.83061,1.48594 -4.83347,-2.30188 -8.62099,-6.19051 -12.94856,-9.25673 -13.06929,-10.56404 -25.63344,-21.96896 -40.33776,-30.27588 -3.61761,-1.94983 -7.30544,-3.78173 -11.11768,-5.32195 -0.89264,1.84707 1.33981,2.97446 2.45956,4.00902 12.20246,9.89669 24.10063,20.45615 33.42733,33.18859 9.65391,13.51873 18.46373,27.70678 25.35822,42.84542 1.36059,3.2384 3.244,6.38919 3.70249,9.91069 0.0855,2.07867 -1.82811,3.78442 -3.86707,3.61327 -2.17077,0.0119 -3.82348,-1.61428 -4.86988,-3.34997 -6.53948,-7.89709 -10.40243,-17.50736 -15.29007,-26.42102 -6.16198,-12.1245 -12.31151,-24.58813 -21.9002,-34.43596 -1.28682,-1.31325 -2.68244,-2.52376 -4.19109,-3.57677 -2.14029,0.18181 -2.31517,3.20861 -0.9504,4.41481 5.25348,10.30179 9.30279,21.21751 12.21723,32.40354 2.53799,10.27066 4.02262,20.88754 3.48582,31.47904 -0.37182,5.38242 -1.61977,10.80457 -4.41898,15.46763 -2.73995,2.33903 -7.41035,-0.0708 -7.52356,-3.54349 -2.39474,-7.32452 -2.14304,-15.12027 -2.94919,-22.7008 -0.86421,-14.39331 -0.95981,-29.0408 -5.03046,-42.99374 -2.20694,-7.24592 -6.19633,-14.04033 -11.94388,-19.03597 -1.73829,-0.14524 -2.17945,2.44561 -1.03532,3.4179 4.02328,10.467 3.46235,22.1391 0.7672,32.85717 -2.05402,8.10475 -5.69244,16.18165 -12.12372,21.73849 -3.15529,2.17562 -7.96089,-0.0119 -8.6966,-3.7037 -1.99169,-5.20844 -0.17416,-10.78838 0.88174,-15.99178 2.42067,-10.4546 6.51572,-20.60842 7.03403,-31.43292 0.20647,-7.81522 -2.88077,-15.6731 -8.36439,-21.24684 -0.96239,-0.67972 -1.75809,-2.40796 -3.13278,-1.70456 -1.89262,0.83214 -2.35179,3.32428 -1.77153,5.12749 0.0916,11.32243 -5.86106,22.19525 -14.71896,29.06203 -2.08403,1.72234 -4.50095,3.27383 -7.24479,3.56988 -2.69102,-0.85266 -3.34356,-4.36852 -2.25406,-6.69473 3.41374,-13.40209 4.27664,-27.56365 1.54267,-41.16902 -1.19,-7.76655 -3.86348,-15.38473 -8.44074,-21.81793 -1.79886,-3.10916 -1.2065,-8.06544 2.44657,-9.52621 1.27984,-0.64965 2.82853,-0.80954 4.19957,-0.36942 z"
         id="path3804"
         inkscape:connector-curvature="0"
         sodipodi:nodetypes="sssssssssssssss" />
    </g>
    <g
       id="g3824">
      <path
         style="fill:#3fad4b;fill-opacity:1;stroke:#25784e;stroke-width:3.32203007;stroke-miterlimit:4;stroke-opacity:1"
         inkscape:transform-center-x="9.0953252"
         inkscape:transform-center-y="-4.9857561"
         d="m 368.59438,403.68875 c 4.39759,-4.30896 10.99999,-6.06005 14.45879,-11.35326 4.98683,-8.36316 8.35653,-17.69282 14.61614,-25.29028 7.62437,-10.78428 17.55983,-19.98365 28.93826,-26.84073 0.60274,-0.67076 1.81947,-0.78962 2.1398,0.21924 0.6564,1.33629 -0.29086,2.77558 -1.41515,3.49399 -9.17171,10.46672 -18.27587,21.01413 -26.53095,32.2064 -0.53344,0.56338 -1.65337,1.73368 -0.55736,2.30569 1.45838,-0.0331 1.92567,-1.72179 3.06846,-2.34665 9.5825,-9.24782 20.04423,-17.61179 31.14828,-25.0237 9.34752,-6.11379 19.20502,-11.82334 30.09998,-14.77294 3.18608,-0.69934 6.56112,-1.40523 9.78955,-0.68314 1.58554,1.00979 1.11272,3.53313 -0.49921,4.27107 -3.49801,2.98009 -7.8891,4.60351 -11.81659,6.92848 -12.89311,6.57623 -26.27655,12.4718 -37.95031,21.09255 -2.79773,2.15296 -5.52649,4.40089 -8.06753,6.84535 1.15227,1.3261 2.81872,-0.0285 4.02583,-0.54764 12.06434,-6.12868 24.54768,-11.79401 37.85904,-14.71388 14.04712,-2.90639 28.33126,-4.92657 42.70346,-5.12993 3.03484,0.0455 6.18164,-0.34621 9.12768,0.49883 1.67478,0.64306 2.36115,2.71641 1.51859,4.24662 -0.7434,1.69542 -2.60357,2.42794 -4.34013,2.65064 -8.51789,2.39907 -17.46345,2.12784 -26.21304,2.89282 -11.7327,0.66165 -23.72947,1.19783 -34.84871,5.30668 -1.4856,0.55425 -2.92764,1.22837 -4.28423,2.04433 -0.59834,1.72966 1.73653,2.8993 3.16445,2.24775 9.97508,-0.57609 20.01844,-0.004 29.88216,1.54388 9.00873,1.52905 17.92617,3.99702 26.1225,8.03131 4.13089,2.12732 7.98938,4.95083 10.70914,8.72385 0.90099,2.93337 -2.62591,5.74957 -5.41357,4.65217 -6.62737,-0.63482 -12.70991,-3.49249 -18.98898,-5.45244 -11.69107,-4.24067 -23.31676,-9.16699 -35.77129,-10.75903 -6.50002,-0.7543 -13.26086,0.0343 -19.20781,2.80697 -0.71777,1.30479 1.17972,2.53306 2.346,1.97358 9.67921,0.4388 18.72238,4.86082 26.27038,10.62 5.70206,4.36742 10.83262,9.95982 13.00016,16.8679 0.6276,3.20122 -2.77021,6.19864 -5.94717,5.51144 -4.81285,-0.22639 -8.59869,-3.54755 -12.35068,-6.14675 -7.43464,-5.45536 -14.0506,-12.11264 -22.43775,-16.21206 -6.11363,-2.82907 -13.40327,-3.10642 -19.71622,-0.7368 -0.8717,0.51777 -2.51543,0.54771 -2.43547,1.85894 0.002,1.75872 1.81536,2.96733 3.44372,3.13086 8.99272,3.79422 15.53351,12.14431 17.89625,21.3903 0.64039,2.2118 1.03011,4.62463 0.31287,6.86356 -1.60806,1.80559 -4.61692,1.11366 -6.08014,-0.52941 -9.42301,-7.23542 -20.33173,-12.74264 -32.04762,-15.25749 -6.5594,-1.72439 -13.51585,-2.24228 -20.19466,-0.87229 -3.08454,0.34008 -6.8017,-1.81358 -6.69093,-5.15858 -0.0703,-1.21898 0.34022,-2.48023 1.16401,-3.3982 z"
         id="path3826"
         inkscape:connector-curvature="0"
         sodipodi:nodetypes="sssssssssssssss" />
      <path
         sodipodi:nodetypes="sssssssssssssss"
         inkscape:connector-curvature="0"
         id="path3828"
         d="m 385.01224,407.21179 c -3.90313,-4.5593 -10.11576,-6.76883 -13.04335,-12.22563 -4.16625,-8.58623 -6.70653,-18.00227 -12.1529,-25.93047 -6.51942,-11.16036 -15.37777,-20.93473 -25.79758,-28.51467 -0.52897,-0.70367 -1.68911,-0.91058 -2.07227,0.0569 -0.73054,1.26428 0.072,2.74856 1.09852,3.53769 8.02982,10.96296 15.98872,22.00021 23.08364,33.60814 0.47041,0.59304 1.45896,1.82583 0.36318,2.30664 -1.39871,-0.14064 -1.72149,-1.83431 -2.77276,-2.53288 -8.51562,-9.79583 -17.94205,-18.78841 -28.05674,-26.89314 -8.5241,-6.69922 -17.56837,-13.03905 -27.8157,-16.74408 -3.00889,-0.92311 -6.19883,-1.86663 -9.35464,-1.39633 -1.59886,0.87468 -1.33316,3.38889 0.16041,4.23333 3.13812,3.18706 7.23572,5.10734 10.83545,7.68255 11.89608,7.41621 24.31414,14.19997 34.88589,23.53462 2.52712,2.32252 4.98088,4.73325 7.23959,7.32316 -1.20619,1.21755 -2.70608,-0.2367 -3.82706,-0.83626 -11.13325,-6.9151 -22.70372,-13.40598 -35.27491,-17.26079 -13.27914,-3.89604 -26.8522,-6.93897 -40.64571,-8.20333 -2.91924,-0.18008 -5.91338,-0.79806 -8.80707,-0.18602 -1.65718,0.50774 -2.47158,2.49398 -1.77644,4.05983 0.58754,1.72082 2.32002,2.57831 3.97186,2.92576 8.00461,2.98803 16.61969,3.38417 24.96905,4.78387 11.22321,1.51916 22.70953,2.93459 33.08571,7.79519 1.38593,0.65462 2.72104,1.42375 3.96345,2.3259 0.44562,1.74374 -1.88512,2.71996 -3.20837,1.97405 -9.5409,-1.30491 -19.23321,-1.48712 -28.82591,-0.6966 -8.76977,0.83499 -17.52201,2.59924 -25.69849,5.95582 -4.12792,1.7841 -8.04615,4.27241 -10.94126,7.77795 -1.08491,2.81534 2.09326,5.84348 4.85361,4.97179 6.41497,-0.13281 12.47259,-2.48991 18.65195,-3.95047 11.54962,-3.30049 23.08766,-7.27947 35.17285,-7.92111 6.30155,-0.25963 12.73835,1.01601 18.24491,4.18063 0.59211,1.33513 -1.32279,2.40137 -2.40152,1.76526 -9.33249,-0.28582 -18.3516,3.38898 -26.03407,8.48829 -5.80491,3.86865 -11.15228,8.98317 -13.75114,15.60982 -0.84227,3.09873 2.19832,6.29539 5.30208,5.85555 4.64106,0.13407 8.52669,-2.84857 12.32581,-5.12437 7.55089,-4.80921 14.40499,-10.85994 22.76967,-14.26638 6.08537,-2.32672 13.10991,-2.05926 18.99823,0.73652 0.79883,0.57329 2.37588,0.72445 2.20105,2.00682 -0.1336,1.7278 -1.96596,2.78096 -3.54269,2.82101 -8.92371,3.06172 -15.8321,10.78122 -18.79324,19.69044 -0.7806,2.12565 -1.33537,4.4674 -0.81358,6.72029 1.41005,1.89311 4.35266,1.43617 5.8813,-0.0697 9.59433,-6.41085 20.48692,-11.01367 31.9314,-12.61668 6.4311,-1.20836 13.1535,-1.2019 19.46806,0.63884 2.93818,0.56262 6.67054,-1.27802 6.81412,-4.5727 0.15866,-1.19245 -0.14151,-2.46204 -0.86439,-3.42498 z"
         inkscape:transform-center-y="-5.0675391"
         inkscape:transform-center-x="-7.8165689"
         style="fill:#3fad4b;fill-opacity:1;stroke:#25784e;stroke-width:3.23709178;stroke-miterlimit:4;stroke-opacity:1" />
      <path
         style="fill:#ad793f;fill-opacity:1;stroke:#624c1e;stroke-width:0.83139235;stroke-miterlimit:4;stroke-opacity:1"
         d="m 333.32644,653.51235 c 5.85578,0.68091 10.3947,0.62009 16.45748,-0.23346 4.38448,-0.61728 14.2037,-2.01961 14.06271,-0.62478 -1.86937,18.49306 -1.24952,26.75377 -4.19269,36.98813 -0.98345,3.41979 -4.13574,4.13469 -5.98562,4.27781 -9.5552,0.73928 -15.36556,1.808 -27.00084,-0.40855 -2.23707,-0.42616 -4.1183,-2.95186 -4.38254,-4.97818 -0.96596,-7.40733 -2.69332,-30.52887 -3.08285,-35.87921 -0.13706,-1.88231 11.86193,0.59516 14.12435,0.85824 z"
         id="path3830"
         inkscape:connector-curvature="0"
         sodipodi:nodetypes="sssssssss" />
      <path
         sodipodi:nodetypes="sssssssss"
         inkscape:connector-curvature="0"
         id="path3832"
         d="m 334.73517,618.81669 c 5.81594,0.9636 10.35251,1.12257 16.44946,0.56355 4.40924,-0.40427 14.28484,-1.32965 14.07652,0.0568 -2.76242,18.38091 -2.5432,26.66195 -5.97838,36.7418 -1.14784,3.3682 -4.33105,3.92964 -6.18566,3.98305 -9.57982,0.2758 -15.43507,1.06205 -26.94945,-1.71518 -2.21381,-0.53392 -3.97056,-3.14777 -4.1364,-5.18449 -0.60618,-7.44541 -1.21227,-30.62346 -1.34232,-35.98637 -0.0458,-1.88676 11.8192,1.16871 14.06623,1.54097 z"
         style="fill:#ad793f;fill-opacity:1;stroke:#624c1e;stroke-width:0.83139235;stroke-miterlimit:4;stroke-opacity:1" />
      <path
         style="fill:#ad793f;fill-opacity:1;stroke:#624c1e;stroke-width:0.83139235;stroke-miterlimit:4;stroke-opacity:1"
         d="m 337.36225,586.56088 c 5.78251,1.14726 10.31177,1.44979 16.42336,1.08408 4.41983,-0.26445 14.31978,-0.87669 14.06767,0.50247 -3.34301,18.28423 -3.3861,26.56806 -7.13871,36.53409 -1.2539,3.33017 -4.4533,3.79054 -6.30866,3.7852 -9.58375,-0.0276 -15.46096,0.57281 -26.88163,-2.56759 -2.1958,-0.60374 -3.86891,-3.27191 -3.97018,-5.31286 -0.37014,-7.46087 -0.24206,-30.64649 -0.20225,-36.01083 0.0139,-1.88726 11.77627,1.54234 14.01039,1.98557 z"
         id="path3834"
         inkscape:connector-curvature="0"
         sodipodi:nodetypes="sssssssss" />
      <path
         sodipodi:nodetypes="sssssssss"
         inkscape:connector-curvature="0"
         id="path3836"
         d="m 341.98222,552.31098 c 5.74369,1.32804 10.26123,1.77247 16.38128,1.59861 4.42595,-0.12572 14.34023,-0.42718 14.045,0.9434 -3.91478,18.1704 -4.21764,26.4488 -8.28095,36.29224 -1.35773,3.2892 -4.56999,3.64901 -6.42427,3.58548 -9.57816,-0.32813 -15.47132,0.0877 -26.78788,-3.40936 -2.17579,-0.6723 -3.76439,-3.39163 -3.80161,-5.43475 -0.13598,-7.46881 0.71917,-30.63901 0.92719,-35.99946 0.0731,-1.8859 11.72211,1.9109 13.94123,2.42397 z"
         style="fill:#ad793f;fill-opacity:1;stroke:#624c1e;stroke-width:0.83139235;stroke-miterlimit:4;stroke-opacity:1" />
      <path
         style="fill:#ad793f;fill-opacity:1;stroke:#624c1e;stroke-width:0.83139235;stroke-miterlimit:4;stroke-opacity:1"
         d="m 346.5921,518.08049 c 5.70009,1.50421 10.20181,2.08748 16.32431,2.10209 4.42773,0.0105 14.34659,0.0144 14.0093,1.37527 -4.47223,18.04129 -5.02975,26.30644 -9.39414,36.02015 -1.45832,3.24584 -4.68014,3.50661 -6.53159,3.38603 -9.56352,-0.62281 -15.46668,-0.38857 -26.67024,-4.2323 -2.15406,-0.73896 -3.65821,-3.5059 -3.63251,-5.54919 0.094,-7.46946 1.66192,-30.60237 2.03485,-35.95387 0.13111,-1.88275 11.65773,2.27081 13.86001,2.85195 z"
         id="path3838"
         inkscape:connector-curvature="0"
         sodipodi:nodetypes="sssssssss" />
      <path
         sodipodi:nodetypes="sssssssss"
         inkscape:connector-curvature="0"
         id="path3840"
         d="m 352.10734,484.08049 c 5.70009,1.50421 10.20181,2.08748 16.32431,2.10209 4.42773,0.0105 14.34659,0.0144 14.0093,1.37527 -4.47223,18.04129 -5.02975,26.30644 -9.39414,36.02015 -1.45832,3.24584 -4.68014,3.50661 -6.53159,3.38603 -9.56352,-0.62281 -15.46668,-0.38857 -26.67024,-4.2323 -2.15406,-0.73896 -3.65821,-3.5059 -3.63251,-5.54919 0.094,-7.46946 1.66192,-30.60237 2.03485,-35.95387 0.13111,-1.88275 11.65773,2.27081 13.86001,2.85195 z"
         style="fill:#ad793f;fill-opacity:1;stroke:#624c1e;stroke-width:0.83139235;stroke-miterlimit:4;stroke-opacity:1" />
      <path
         style="fill:#ad793f;fill-opacity:1;stroke:#624c1e;stroke-width:0.83139235;stroke-miterlimit:4;stroke-opacity:1"
         d="m 358.70681,449.87099 c 5.65206,1.67569 10.1341,2.39467 16.25337,2.59419 4.42539,0.14425 14.33961,0.44771 13.96137,1.79777 -5.0151,17.89799 -5.822,26.14253 -10.47779,35.71998 -1.55569,3.20031 -4.78392,3.36366 -6.63088,3.18721 -9.54035,-0.91138 -15.44789,-0.85555 -26.53024,-5.0359 -2.13076,-0.80369 -3.55066,-3.6148 -3.46325,-5.65638 0.31956,-7.46321 2.58546,-30.53821 3.11985,-35.876 0.18792,-1.87794 11.58384,2.62187 13.76756,3.26926 z"
         id="path3842"
         inkscape:connector-curvature="0"
         sodipodi:nodetypes="sssssssss" />
      <path
         sodipodi:nodetypes="sssssssss"
         inkscape:connector-curvature="0"
         id="path3844"
         d="m 365.99263,413.77383 c 5.62646,1.75974 10.09729,2.54543 16.2129,2.83612 4.42275,0.21019 14.33135,0.66136 13.93303,2.00563 -5.28127,17.82127 -6.21094,26.05287 -11.00894,35.55987 -1.60321,3.17677 -4.83352,3.29199 -6.67764,3.08804 -9.52571,-1.05345 -15.43343,-1.08567 -26.45225,-5.43071 -2.11855,-0.83535 -3.4964,-3.66731 -3.37857,-5.70736 0.43074,-7.45762 3.04027,-30.49629 3.65415,-35.82552 0.21588,-1.87494 11.54348,2.7942 13.71731,3.47406 z"
         style="fill:#ad793f;fill-opacity:1;stroke:#624c1e;stroke-width:0.83139235;stroke-miterlimit:4;stroke-opacity:1" />
      <path
         style="fill:#3fad4b;fill-opacity:1;stroke:#25784e;stroke-width:3.8747797;stroke-miterlimit:4;stroke-opacity:1"
         inkscape:transform-center-x="-1.6929954"
         inkscape:transform-center-y="0.12715551"
         d="m 370.95622,403.57805 c -7.09909,1.07805 -13.29887,5.99579 -20.68182,5.51225 -11.33583,-1.20868 -22.47177,-4.59761 -33.96022,-4.0868 -15.4394,-0.44795 -30.97203,2.36235 -45.28459,8.1529 -1.04877,0.0917 -1.99868,1.14051 -1.26584,2.14395 0.81089,1.54504 2.82306,1.67024 4.2759,1.12665 16.20447,-1.21359 32.43871,-2.30792 48.69782,-2.16145 0.89959,-0.1023 2.77644,-0.32584 2.5625,1.09375 -1.03531,1.33351 -2.95267,0.58749 -4.32982,1.21369 -15.33545,2.44808 -30.44095,6.33212 -45.08891,11.47943 -12.21212,4.42095 -24.39331,9.59897 -34.68061,17.67204 -2.85413,2.475 -5.84451,5.1212 -7.38459,8.62952 -0.13726,2.18113 2.57272,3.5057 4.37969,2.52214 5.22411,-1.17037 9.78098,-4.12023 14.68167,-6.14824 15.08986,-7.39603 29.87405,-15.72417 46.05655,-20.55621 3.96042,-1.09727 7.9631,-2.06397 12.02227,-2.71862 0.45992,1.99923 -1.96722,2.6024 -3.28886,3.3623 -14.09642,6.93797 -28.04342,14.58976 -39.96605,24.93157 -12.41638,11.03575 -24.15848,22.91163 -34.24435,36.13992 -2.04614,2.85513 -4.58255,5.50868 -5.81204,8.84028 -0.54525,2.0077 0.94153,4.09601 2.96755,4.38218 2.11386,0.49393 4.08659,-0.72436 5.49249,-2.18416 8.1307,-6.24665 14.03244,-14.75835 20.77847,-22.36318 8.70194,-10.45226 17.4671,-21.23793 29.00423,-28.70904 1.54645,-0.99449 3.17615,-1.86464 4.88106,-2.55612 2.04639,0.65283 1.54436,3.64282 -0.0543,4.51563 -7.41116,8.87697 -13.78466,18.62009 -19.11173,28.87892 -4.75663,9.44999 -8.56316,19.47159 -10.39316,29.9176 -0.83342,5.33049 -0.82144,10.89439 0.87169,16.06285 2.15174,2.88937 7.24085,1.57747 8.12284,-1.78321 3.96234,-6.60933 5.44911,-14.26613 7.91946,-21.47804 4.04073,-13.84149 7.38853,-28.10158 14.4577,-40.80125 3.76177,-6.57442 9.16112,-12.31256 15.875,-15.90625 1.72711,0.24463 1.58157,2.86874 0.25,3.5625 -6.24842,9.3114 -8.29499,20.81636 -8.04871,31.86535 0.20184,8.35854 1.95466,17.04198 6.99047,23.88891 2.59301,2.82232 7.76453,1.75726 9.30215,-1.67878 3.09919,-4.6357 2.56693,-10.48 2.69359,-15.78794 -0.0372,-10.73112 -1.77376,-21.54102 0.12604,-32.21009 1.53519,-7.66574 6.29123,-14.64122 12.87623,-18.8572 1.08936,-0.44889 2.24918,-1.95713 3.43321,-0.96586 1.66041,1.23187 1.55437,3.76374 0.58795,5.39294 -2.60509,11.01904 0.78288,22.94271 7.89359,31.60602 1.64924,2.14235 3.66101,4.19208 6.27048,5.0904 2.8132,-0.23342 4.23064,-3.5164 3.68524,-6.02654 -0.35053,-13.82559 1.95477,-27.82487 7.64344,-40.48266 2.88594,-7.308 7.18531,-14.14171 13.07757,-19.39705 2.44473,-2.63174 2.96844,-7.59574 -0.26874,-9.83169 -1.1035,-0.91778 -2.57795,-1.41779 -4.01251,-1.29331 z"
         id="path3846"
         inkscape:connector-curvature="0"
         sodipodi:nodetypes="sssssssssssssss" />
      <path
         sodipodi:nodetypes="sssssssssssssss"
         inkscape:connector-curvature="0"
         id="path3848"
         d="m 373.85932,404.69759 c 6.6821,2.62848 11.6342,8.80085 18.94003,9.96985 11.32103,1.34029 22.93159,0.51043 34.01936,3.56114 15.15298,2.9938 29.6729,9.18512 42.34105,18.01109 1.00218,0.32244 1.6953,1.5561 0.75782,2.37162 -1.13392,1.32625 -3.12361,1.00122 -4.41935,0.14841 -15.52974,-4.7838 -31.11501,-9.45794 -47.00022,-12.92782 -0.85437,-0.29963 -2.63464,-0.93461 -2.74147,0.49703 0.71313,1.53022 2.74832,1.22888 3.95191,2.14542 14.40815,5.79434 28.27303,12.93765 41.41112,21.21099 10.92453,7.0239 21.65069,14.77908 29.88704,24.93613 2.23285,3.0473 4.56051,6.2918 5.28256,10.05462 -0.35081,2.1571 -3.28736,2.84642 -4.83061,1.48594 -4.83347,-2.30188 -8.62099,-6.19051 -12.94856,-9.25673 -13.06929,-10.56404 -25.63344,-21.96896 -40.33776,-30.27588 -3.61761,-1.94983 -7.30544,-3.78173 -11.11768,-5.32195 -0.89264,1.84707 1.33981,2.97446 2.45956,4.00902 12.20246,9.89669 24.10063,20.45615 33.42733,33.18859 9.65391,13.51873 18.46373,27.70678 25.35822,42.84542 1.36059,3.2384 3.244,6.38919 3.70249,9.91069 0.0855,2.07867 -1.82811,3.78442 -3.86707,3.61327 -2.17077,0.0119 -3.82348,-1.61428 -4.86988,-3.34997 -6.53948,-7.89709 -10.40243,-17.50736 -15.29007,-26.42102 -6.16198,-12.1245 -12.31151,-24.58813 -21.9002,-34.43596 -1.28682,-1.31325 -2.68244,-2.52376 -4.19109,-3.57677 -2.14029,0.18181 -2.31517,3.20861 -0.9504,4.41481 5.25348,10.30179 9.30279,21.21751 12.21723,32.40354 2.53799,10.27066 4.02262,20.88754 3.48582,31.47904 -0.37182,5.38242 -1.61977,10.80457 -4.41898,15.46763 -2.73995,2.33903 -7.41035,-0.0708 -7.52356,-3.54349 -2.39474,-7.32452 -2.14304,-15.12027 -2.94919,-22.7008 -0.86421,-14.39331 -0.95981,-29.0408 -5.03046,-42.99374 -2.20694,-7.24592 -6.19633,-14.04033 -11.94388,-19.03597 -1.73829,-0.14524 -2.17945,2.44561 -1.03532,3.4179 4.02328,10.467 3.46235,22.1391 0.7672,32.85717 -2.05402,8.10475 -5.69244,16.18165 -12.12372,21.73849 -3.15529,2.17562 -7.96089,-0.0119 -8.6966,-3.7037 -1.99169,-5.20844 -0.17416,-10.78838 0.88174,-15.99178 2.42067,-10.4546 6.51572,-20.60842 7.03403,-31.43292 0.20647,-7.81522 -2.88077,-15.6731 -8.36439,-21.24684 -0.96239,-0.67972 -1.75809,-2.40796 -3.13278,-1.70456 -1.89262,0.83214 -2.35179,3.32428 -1.77153,5.12749 0.0916,11.32243 -5.86106,22.19525 -14.71896,29.06203 -2.08403,1.72234 -4.50095,3.27383 -7.24479,3.56988 -2.69102,-0.85266 -3.34356,-4.36852 -2.25406,-6.69473 3.41374,-13.40209 4.27664,-27.56365 1.54267,-41.16902 -1.19,-7.76655 -3.86348,-15.38473 -8.44074,-21.81793 -1.79886,-3.10916 -1.2065,-8.06544 2.44657,-9.52621 1.27984,-0.64965 2.82853,-0.80954 4.19957,-0.36942 z"
         inkscape:transform-center-y="-3.8194399"
         inkscape:transform-center-x="-2.9354053"
         style="fill:#3fad4b;fill-opacity:1;stroke:#25784e;stroke-width:3.8747797;stroke-miterlimit:4;stroke-opacity:1" />
    </g>
  </g>
</svg>
