<?xml version="1.0" encoding="UTF-8" standalone="no"?>
<!-- Created with Inkscape (http://www.inkscape.org/) -->

<svg
   xmlns:dc="http://purl.org/dc/elements/1.1/"
   xmlns:cc="http://creativecommons.org/ns#"
   xmlns:rdf="http://www.w3.org/1999/02/22-rdf-syntax-ns#"
   xmlns:svg="http://www.w3.org/2000/svg"
   xmlns="http://www.w3.org/2000/svg"
   xmlns:sodipodi="http://sodipodi.sourceforge.net/DTD/sodipodi-0.dtd"
   xmlns:inkscape="http://www.inkscape.org/namespaces/inkscape"
   width="744.09448819"
   height="1052.3622047"
   id="svg3802"
   version="1.1"
   inkscape:version="0.48.1 "
   sodipodi:docname="Paragraph.svg"
   inkscape:export-filename="C:\Users\Attila\Documents\Visual Studio 2010\Projects\TimeMerge\TimeMerge\Paragraph.png"
   inkscape:export-xdpi="150"
   inkscape:export-ydpi="150">
  <defs
     id="defs3804">
    <inkscape:path-effect
       effect="spiro"
       id="path-effect3825"
       is_visible="true" />
    <filter
       inkscape:collect="always"
       id="filter4638"
       x="-0.19187209"
       width="1.3837442"
       y="-0.087299204"
       height="1.1745984">
      <feGaussianBlur
         inkscape:collect="always"
         stdDeviation="16.276787"
         id="feGaussianBlur4640" />
    </filter>
  </defs>
  <sodipodi:namedview
     id="base"
     pagecolor="#ffffff"
     bordercolor="#666666"
     borderopacity="1.0"
     inkscape:pageopacity="0.0"
     inkscape:pageshadow="2"
     inkscape:zoom="0.7"
     inkscape:cx="139.00422"
     inkscape:cy="491.4581"
     inkscape:document-units="px"
     inkscape:current-layer="g4626"
     showgrid="false"
     inkscape:window-width="1920"
     inkscape:window-height="1018"
     inkscape:window-x="1272"
     inkscape:window-y="-8"
     inkscape:window-maximized="1" />
  <metadata
     id="metadata3807">
    <rdf:RDF>
      <cc:Work
         rdf:about="">
        <dc:format>image/svg+xml</dc:format>
        <dc:type
           rdf:resource="http://purl.org/dc/dcmitype/StillImage" />
        <dc:title></dc:title>
      </cc:Work>
    </rdf:RDF>
  </metadata>
  <g
     inkscape:label="Layer 1"
     inkscape:groupmode="layer"
     id="layer1">
    <path
       id="path3829"
       style="fill:none;stroke:#bd7403;stroke-width:55;stroke-linecap:round;stroke-linejoin:round;stroke-miterlimit:4;stroke-opacity:1;stroke-dasharray:none;filter:url(#filter4638)"
       d="m 317.88453,398.57647 c 0,0 -69.50821,32.96638 -60.00001,87.14285 9.72671,55.4215 120.27592,86.27933 168.57143,140 17.98252,20.00255 27.95025,64.87672 -20,87.14286 -92.21277,42.81986 -135.71429,-54.28571 -135.71429,-54.28571 M 390,589.50504 c 0,0 78.07963,-40.10924 70,-84.28571 -10.12329,-55.35044 -123.79707,-83.31117 -168.57143,-140 -23.69681,-30.00255 -2.96135,-69.96093 31.42857,-82.85715 68.57143,-25.71428 112.85715,38.57143 112.85715,38.57143" />
  </g>
  <g
     id="g4626"
     inkscape:groupmode="layer"
     inkscape:label="Layer 1 copy">
    <path
       d="m 317.88453,398.57647 c 0,0 -69.50821,32.96638 -60.00001,87.14285 9.72671,55.4215 120.27592,86.27933 168.57143,140 17.98252,20.00255 27.95025,64.87672 -20,87.14286 -92.21277,42.81986 -135.71429,-54.28571 -135.71429,-54.28571 M 390,589.50504 c 0,0 78.07963,-40.10924 70,-84.28571 -10.12329,-55.35044 -123.79707,-83.31117 -168.57143,-140 -23.69681,-30.00255 -2.96135,-69.96093 31.42857,-82.85715 68.57143,-25.71428 112.85715,38.57143 112.85715,38.57143"
       style="fill:none;stroke:#ae6a03;stroke-width:55;stroke-linecap:round;stroke-linejoin:round;stroke-miterlimit:4;stroke-opacity:1;stroke-dasharray:none"
       id="path4628" />
  </g>
</svg>
