<?xml version="1.0" encoding="UTF-8" standalone="no"?>
<!-- Created with Inkscape (http://www.inkscape.org/) -->

<svg
   xmlns:dc="http://purl.org/dc/elements/1.1/"
   xmlns:cc="http://creativecommons.org/ns#"
   xmlns:rdf="http://www.w3.org/1999/02/22-rdf-syntax-ns#"
   xmlns:svg="http://www.w3.org/2000/svg"
   xmlns="http://www.w3.org/2000/svg"
   xmlns:sodipodi="http://sodipodi.sourceforge.net/DTD/sodipodi-0.dtd"
   xmlns:inkscape="http://www.inkscape.org/namespaces/inkscape"
   width="744.09448819"
   height="1052.3622047"
   id="svg3006"
   version="1.1"
   inkscape:version="0.48.1 "
   sodipodi:docname="New document 2">
  <defs
     id="defs3008">
    <filter
       inkscape:collect="always"
       id="filter3917"
       x="-0.10839858"
       width="1.2167972"
       y="-0.13438235"
       height="1.2687647">
      <feGaussianBlur
         inkscape:collect="always"
         stdDeviation="24.131588"
         id="feGaussianBlur3919" />
    </filter>
  </defs>
  <sodipodi:namedview
     id="base"
     pagecolor="#ffffff"
     bordercolor="#666666"
     borderopacity="1.0"
     inkscape:pageopacity="0.0"
     inkscape:pageshadow="2"
     inkscape:zoom="0.5"
     inkscape:cx="319.04724"
     inkscape:cy="508.18109"
     inkscape:document-units="px"
     inkscape:current-layer="layer1"
     showgrid="false"
     inkscape:window-width="1920"
     inkscape:window-height="1138"
     inkscape:window-x="1272"
     inkscape:window-y="-8"
     inkscape:window-maximized="1" />
  <metadata
     id="metadata3011">
    <rdf:RDF>
      <cc:Work
         rdf:about="">
        <dc:format>image/svg+xml</dc:format>
        <dc:type
           rdf:resource="http://purl.org/dc/dcmitype/StillImage" />
        <dc:title></dc:title>
      </cc:Work>
    </rdf:RDF>
  </metadata>
  <g
     inkscape:label="Layer 1"
     inkscape:groupmode="layer"
     id="layer1">
    <g
       id="g3892"
       style="filter:url(#filter3917)">
      <path
         inkscape:connector-curvature="0"
         d="m 335.49277,293.59786 c -30.35941,1.01961 -54.48712,31.04572 -47.85826,58.9377 3.82636,24.45747 28.78903,45.45303 55.81498,41.3575 24.68139,-1.04522 50.06264,2.33132 74.26283,-1.62173 24.05438,-5.47531 41.02791,-28.45357 38.01549,-51.66761 -1.35174,-25.58245 -25.46687,-50.08177 -53.98789,-46.67288 -22.08268,-0.0785 -44.18227,0.52577 -66.24715,-0.33298 z m 1.77458,-35.07063 68.32243,0 c 48.24464,0 87.08419,36.57144 87.08419,81.99873 l 0,6.83322 c 0,45.4273 -38.83955,81.99874 -87.08419,81.99874 l -68.32243,0 c -48.24465,0 -87.08421,-36.57144 -87.08421,-81.99874 l 0,-6.83322 c 0,-45.42729 38.83956,-81.99873 87.08421,-81.99873 z"
         style="fill:#803300;fill-opacity:1;stroke:#2b1100;stroke-width:11.60479832;stroke-linecap:round;stroke-linejoin:round;stroke-miterlimit:4;stroke-opacity:1;stroke-dasharray:none"
         id="rect3784-2" />
      <rect
         ry="34.285717"
         y="353.79074"
         x="104.28571"
         height="335.71429"
         width="534.28571"
         id="rect3014"
         style="fill:#803300;stroke:#2b1100;stroke-width:10;stroke-linecap:round;stroke-linejoin:round;stroke-miterlimit:4;stroke-opacity:1;stroke-dasharray:none" />
      <rect
         ry="0"
         y="354.0563"
         x="180"
         height="334.9303"
         width="54.285713"
         id="rect3844"
         style="fill:#e9c6af;fill-opacity:1;stroke:#2b1100;stroke-width:9.98831558;stroke-linecap:round;stroke-linejoin:round;stroke-miterlimit:4;stroke-opacity:1;stroke-dasharray:none" />
      <rect
         style="fill:#e9c6af;fill-opacity:1;stroke:#2b1100;stroke-width:9.98831558;stroke-linecap:round;stroke-linejoin:round;stroke-miterlimit:4;stroke-opacity:1;stroke-dasharray:none"
         id="rect3867"
         width="54.285713"
         height="334.9303"
         x="502.85715"
         y="354.0563"
         ry="0" />
      <g
         style="stroke:#2b0000"
         transform="translate(11.133431,5.5667137)"
         id="g3888">
        <path
           style="fill:#ff6600;stroke:#2b0000;stroke-width:6.7446661;stroke-linecap:butt;stroke-linejoin:miter;stroke-miterlimit:4;stroke-opacity:1;stroke-dasharray:none"
           d="m 397.56439,411.69936 -50.50496,8.61822 -42.98442,45.21021 53.63068,49.58996 42.89042,-50.62601 -3.03172,-52.79238 z m -18.21372,17.11869 c 3.26343,0 5.89889,2.66408 5.89889,5.93382 0,3.26974 -2.63546,5.9103 -5.89889,5.9103 -3.26346,0 -5.92241,-2.64056 -5.92241,-5.9103 0,-3.26974 2.65895,-5.93382 5.92241,-5.93382 z"
           id="path3869"
           inkscape:connector-curvature="0" />
        <path
           style="fill:none;stroke:#2b0000;stroke-width:8;stroke-linecap:round;stroke-linejoin:miter;stroke-miterlimit:4;stroke-opacity:1;stroke-dasharray:none"
           d="m 374.21951,347.31731 c 0,0 -27.85923,16.9159 -8.75827,33.23084 11.80739,10.0852 44.16507,-0.26483 45.85846,19.05399 1.66429,18.98672 -25.09931,32.13329 -25.09931,32.13329"
           id="path3886"
           inkscape:connector-curvature="0"
           sodipodi:nodetypes="cssc" />
      </g>
    </g>
    <g
       id="g3901">
      <path
         id="path3903"
         style="fill:#803300;fill-opacity:1;stroke:#2b1100;stroke-width:11.60479832;stroke-linecap:round;stroke-linejoin:round;stroke-miterlimit:4;stroke-opacity:1;stroke-dasharray:none"
         d="m 335.49277,293.59786 c -30.35941,1.01961 -54.48712,31.04572 -47.85826,58.9377 3.82636,24.45747 28.78903,45.45303 55.81498,41.3575 24.68139,-1.04522 50.06264,2.33132 74.26283,-1.62173 24.05438,-5.47531 41.02791,-28.45357 38.01549,-51.66761 -1.35174,-25.58245 -25.46687,-50.08177 -53.98789,-46.67288 -22.08268,-0.0785 -44.18227,0.52577 -66.24715,-0.33298 z m 1.77458,-35.07063 68.32243,0 c 48.24464,0 87.08419,36.57144 87.08419,81.99873 l 0,6.83322 c 0,45.4273 -38.83955,81.99874 -87.08419,81.99874 l -68.32243,0 c -48.24465,0 -87.08421,-36.57144 -87.08421,-81.99874 l 0,-6.83322 c 0,-45.42729 38.83956,-81.99873 87.08421,-81.99873 z"
         inkscape:connector-curvature="0" />
      <rect
         style="fill:#803300;stroke:#2b1100;stroke-width:10;stroke-linecap:round;stroke-linejoin:round;stroke-miterlimit:4;stroke-opacity:1;stroke-dasharray:none"
         id="rect3905"
         width="534.28571"
         height="335.71429"
         x="104.28571"
         y="353.79074"
         ry="34.285717" />
      <rect
         style="fill:#e9c6af;fill-opacity:1;stroke:#2b1100;stroke-width:9.98831558;stroke-linecap:round;stroke-linejoin:round;stroke-miterlimit:4;stroke-opacity:1;stroke-dasharray:none"
         id="rect3907"
         width="54.285713"
         height="334.9303"
         x="180"
         y="354.0563"
         ry="0" />
      <rect
         ry="0"
         y="354.0563"
         x="502.85715"
         height="334.9303"
         width="54.285713"
         id="rect3909"
         style="fill:#e9c6af;fill-opacity:1;stroke:#2b1100;stroke-width:9.98831558;stroke-linecap:round;stroke-linejoin:round;stroke-miterlimit:4;stroke-opacity:1;stroke-dasharray:none" />
      <g
         id="g3911"
         transform="translate(11.133431,5.5667137)"
         style="stroke:#2b0000">
        <path
           inkscape:connector-curvature="0"
           id="path3913"
           d="m 397.56439,411.69936 -50.50496,8.61822 -42.98442,45.21021 53.63068,49.58996 42.89042,-50.62601 -3.03172,-52.79238 z m -18.21372,17.11869 c 3.26343,0 5.89889,2.66408 5.89889,5.93382 0,3.26974 -2.63546,5.9103 -5.89889,5.9103 -3.26346,0 -5.92241,-2.64056 -5.92241,-5.9103 0,-3.26974 2.65895,-5.93382 5.92241,-5.93382 z"
           style="fill:#ff6600;stroke:#2b0000;stroke-width:6.7446661;stroke-linecap:butt;stroke-linejoin:miter;stroke-miterlimit:4;stroke-opacity:1;stroke-dasharray:none" />
        <path
           sodipodi:nodetypes="cssc"
           inkscape:connector-curvature="0"
           id="path3915"
           d="m 374.21951,347.31731 c 0,0 -27.85923,16.9159 -8.75827,33.23084 11.80739,10.0852 44.16507,-0.26483 45.85846,19.05399 1.66429,18.98672 -25.09931,32.13329 -25.09931,32.13329"
           style="fill:none;stroke:#2b0000;stroke-width:8;stroke-linecap:round;stroke-linejoin:miter;stroke-miterlimit:4;stroke-opacity:1;stroke-dasharray:none" />
      </g>
    </g>
  </g>
</svg>
